<svg width="487" height="465" viewBox="0 0 487 465" fill="none" xmlns="http://www.w3.org/2000/svg">
<mask id="path-1-outside-1" maskUnits="userSpaceOnUse" x="0" y="0" width="487" height="465" fill="black">
<rect fill="white" width="487" height="465"/>
<path fill-rule="evenodd" clip-rule="evenodd" d="M46.5211 210.305C24.6008 189.204 11 159.793 11 127.262C11 63.0521 63.9858 11 129.347 11C183.217 11 228.681 46.3589 243.002 94.7407C257.322 46.359 302.786 11.0002 356.657 11.0002C422.018 11.0002 475.004 63.0523 475.004 127.262C475.004 156.786 463.801 183.741 445.343 204.246L445.808 204.422L243.003 453.107L46.5211 210.305Z"/>
</mask>
<path fill-rule="evenodd" clip-rule="evenodd" d="M46.5211 210.305C24.6008 189.204 11 159.793 11 127.262C11 63.0521 63.9858 11 129.347 11C183.217 11 228.681 46.3589 243.002 94.7407C257.322 46.359 302.786 11.0002 356.657 11.0002C422.018 11.0002 475.004 63.0523 475.004 127.262C475.004 156.786 463.801 183.741 445.343 204.246L445.808 204.422L243.003 453.107L46.5211 210.305Z" fill="#E81224"/>
<path d="M46.5211 210.305L55.072 203.386C54.7857 203.032 54.4778 202.696 54.1499 202.381L46.5211 210.305ZM243.002 94.7407L232.454 97.8627C233.837 102.535 238.129 105.741 243.002 105.741C247.874 105.741 252.167 102.535 253.549 97.8627L243.002 94.7407ZM445.343 204.246L437.167 196.887C434.737 199.587 433.796 203.312 434.654 206.842C435.511 210.372 438.056 213.251 441.454 214.536L445.343 204.246ZM445.808 204.422L454.333 211.374C456.569 208.632 457.349 204.982 456.431 201.565C455.512 198.149 453.006 195.383 449.697 194.132L445.808 204.422ZM243.003 453.107L234.452 460.026C236.536 462.602 239.669 464.101 242.982 464.107C246.295 464.113 249.434 462.626 251.527 460.059L243.003 453.107ZM54.1499 202.381C34.2719 183.245 22 156.651 22 127.262H0C0 162.935 14.9297 195.162 38.8923 218.23L54.1499 202.381ZM22 127.262C22 69.3108 69.8757 22 129.347 22V0C58.0958 0 0 56.7934 0 127.262H22ZM129.347 22C178.326 22 219.511 54.1352 232.454 97.8627L253.549 91.6187C237.851 38.5826 188.109 0 129.347 0V22ZM253.549 97.8627C266.492 54.1353 307.678 22.0002 356.657 22.0002V0.000170543C297.895 0.000170543 248.152 38.5827 232.454 91.6187L253.549 97.8627ZM356.657 22.0002C416.128 22.0002 464.004 69.311 464.004 127.262H486.004C486.004 56.7936 427.908 0.000170543 356.657 0.000170543V22.0002ZM464.004 127.262C464.004 153.942 453.893 178.305 437.167 196.887L453.519 211.605C473.708 189.176 486.004 159.631 486.004 127.262H464.004ZM441.454 214.536L441.92 214.711L449.697 194.132L449.232 193.956L441.454 214.536ZM437.283 197.47L234.478 446.155L251.527 460.059L454.333 211.374L437.283 197.47ZM251.554 446.187L55.072 203.386L37.9702 217.225L234.452 460.026L251.554 446.187Z" fill="black" mask="url(#path-1-outside-1)"/>
</svg>
